<svg xmlns="http://www.w3.org/2000/svg" viewBox="0 0 230.97 230.97"><defs><style>.cls-1{opacity:0.36;}.cls-2{fill:#252525;opacity:0;}.cls-3{fill:#3673d4;}.cls-4{fill:#fff;}</style></defs><title>icono1_1</title><g id="Capa_2" data-name="Capa 2"><g id="Capa_1-2" data-name="Capa 1"><g class="cls-1"><rect class="cls-2" x="0.5" y="0.5" width="229.98" height="229.98" transform="translate(0.5 -0.5) rotate(0.25)"/><path class="cls-3" d="M50.13,42.27l-.25,57.06L61.34,86.19,71.68,99.42l.24-57A65.27,65.27,0,0,1,83,45.22l0-3.57a70.83,70.83,0,0,0-22-3.56,83.45,83.45,0,0,0-19.94,2.39l0,3.57A83.11,83.11,0,0,1,50.13,42.27Z"/><path class="cls-3" d="M205.29,57.11l.05-11.28-1-.47a81,81,0,0,0-32.27-6.79c-21.61-.09-40.8,9-55.66,26.31C101.73,47.46,82.61,38.19,61,38.09A81.07,81.07,0,0,0,28.68,44.6l-1,.47-.05,11.28-4.46,0v2.12l-.51,117.63v2.12s47.61-26,91.81.71c0,0,.49.58.73.43.25.15.74-.43.74-.43a83.17,83.17,0,0,1,16.76-7.56c5.29,13.92,17.46,21.44,17.46,21.44l34,.15a76.75,76.75,0,0,0,8.38-20.23A95.13,95.13,0,0,1,207.75,179v-2.11l.51-117.63V57.13Zm-87.15,11c14.5-17.43,32.65-26.23,53.94-26.13a80.21,80.21,0,0,1,29.82,6l-.48,109.73c-2.41-1.13-4.84-2.12-7.27-3-1-14.55-6.77-15.8-8.94-15.73-.09,2-.19,3.88-.32,5.52-.14,2.08-.36,3.82-.47,5s-.23,1.91-.23,1.91-.11-.69-.23-1.91-.3-2.95-.42-5c-.26-3.89-.42-9-.43-14.17-2.61-6.8-8.52-5.43-10.74-4.61-.07,6.21-.28,12.28-.56,17-.14,2.61-.37,4.78-.48,6.31,0,.18,0,.33,0,.49l-.38,0c0-.15,0-.28,0-.45-.1-1.53-.31-3.71-.43-6.32-.27-5.23-.43-12.2-.41-19.17,0-1.75,0-3.5.06-5.21-2.65-5.71-8.37-5-10.8-4.38,0,1.86,0,3.75,0,5.65,0,4-.07,7.94-.19,11.66s-.3,7.2-.42,10.18-.36,5.46-.46,7.2c0,.29-.05.53-.07.77l-.33,0c0-.25,0-.49-.06-.79-.09-1.74-.31-4.23-.4-7.21s-.28-6.45-.33-10.18-.08-7.69-.09-11.66.07-8,.19-11.67.31-7.2.42-10.18c0-1.06.1-2,.16-2.95,0-.23-.09-.44-.14-.66a70.33,70.33,0,0,1,30.87-.53l.7-3.46a73.51,73.51,0,0,0-32.61.62,6.15,6.15,0,0,0-5.92-4c-2.83,0-4.63,3.28-5.76,8a69.09,69.09,0,0,0-20.18,13.09l2.54,2.45a63.73,63.73,0,0,1,16.84-11.31c-1.45,9.89-1,22.89-.82,27.32.22,6.27.3,20.82.31,25.45l-.25.07-3.76-20.53c-2-.15-9.12,6.2-9.28,25a81.54,81.54,0,0,0-12.54,6.72l.39-90.25,0-3.87Zm-87-20.86a76.92,76.92,0,0,1,19-5,96.22,96.22,0,0,1,21.79.14c16.76,2.8,31,11.24,42.79,25.72v4.54l-.39,90.26a85.51,85.51,0,0,0-46.62-14.2,87.39,87.39,0,0,0-37,8.28ZM116,173.43s-30.69-27-87.07-6.55l0-5.23.76-.38a84.88,84.88,0,0,1,38-9.11,82.07,82.07,0,0,1,47.26,15.46l1.07,1.22,1.08-1.21A69,69,0,0,1,130.34,160a35.5,35.5,0,0,0,.79,6A69.79,69.79,0,0,0,116,173.43Zm78-8.85a45.9,45.9,0,0,0,.32-5.14c0-.35,0-.66,0-1,2.71,1.06,5.4,2.23,8.08,3.58l.76.38,0,5.23C200,166.45,197,165.45,194,164.58Z"/><path class="cls-3" d="M188.6,61.13l.7-3.46C150,49.75,125.08,75.1,124.83,75.36l2.54,2.45C127.61,77.57,151.26,53.61,188.6,61.13Z"/><path class="cls-3" d="M188.53,77.35l.7-3.46C149.94,66,125,91.33,124.76,91.58L127.3,94C127.54,93.79,151.19,69.83,188.53,77.35Z"/><path class="cls-4" d="M117.07,167.63,116,168.84l-1.07-1.22a82.07,82.07,0,0,0-47.26-15.46,84.88,84.88,0,0,0-38,9.11l-.76.38,0,5.23c56.38-20.43,87.07,6.55,87.07,6.55A69.79,69.79,0,0,1,131.13,166a35.5,35.5,0,0,1-.79-6A69,69,0,0,0,117.07,167.63Z"/><path class="cls-4" d="M201.42,157.75,201.9,48a80.21,80.21,0,0,0-29.82-6c-21.29-.1-39.44,8.7-53.94,26.13v.68l0,3.87-.39,90.25a81.54,81.54,0,0,1,12.54-6.72c.16-18.77,7.33-25.12,9.28-25l3.76,20.53.25-.07c0-4.63-.09-19.18-.31-25.45-.16-4.43-.63-17.43.82-27.32a64,64,0,0,0-16.84,11.31l-2.54-2.45a69.09,69.09,0,0,1,20.18-13.09c1.13-4.71,2.93-8,5.76-8a6.15,6.15,0,0,1,5.92,4,73.51,73.51,0,0,1,32.61-.62l-.7,3.46a70.33,70.33,0,0,0-30.87.53c0,.22.1.43.14.66-.06.92-.12,1.89-.16,2.95-.11,3-.33,6.45-.42,10.18s-.15,7.69-.19,11.67,0,7.94.09,11.66.24,7.21.33,10.18.31,5.47.4,7.21c0,.3,0,.54.06.79l.33,0c0-.24,0-.48.07-.77.1-1.74.35-4.22.46-7.2s.34-6.45.42-10.18.15-7.69.19-11.66c0-1.9,0-3.79,0-5.65,2.43-.61,8.15-1.33,10.8,4.38,0,1.71,0,3.46-.06,5.21,0,7,.14,13.94.41,19.17.12,2.61.33,4.79.43,6.32,0,.17,0,.3,0,.45l.38,0c0-.16,0-.31,0-.49.11-1.53.34-3.7.48-6.31.28-4.68.49-10.75.56-17,2.22-.82,8.13-2.19,10.74,4.61,0,5.18.17,10.28.43,14.17.12,2.08.33,3.82.42,5s.23,1.91.23,1.91.1-.69.23-1.91.33-2.95.47-5c.13-1.64.23-3.53.32-5.52,2.17-.07,8,1.18,8.94,15.73C196.58,155.63,199,156.62,201.42,157.75Zm-12.89-80.4c-37.34-7.52-61,16.44-61.23,16.68l-2.54-2.45c.25-.25,25.18-25.61,64.47-17.69Zm.07-16.22c-37.34-7.52-61,16.44-61.23,16.68l-2.54-2.45c.25-.26,25.18-25.61,64.47-17.69Z"/><path class="cls-4" d="M71.92,42.41l-.24,57L61.34,86.19,49.88,99.33l.25-57.06c-1.61.22-3.13.49-4.58.77l-.49.1c-1.41.29-2.76.59-4,.91h0a72.06,72.06,0,0,0-9.92,3.24L30.66,157a87.39,87.39,0,0,1,37-8.28,85.51,85.51,0,0,1,46.62,14.2l.39-90.26V68.13c-10.14-12.42-22-20.36-35.8-24.15L78,43.7C76,43.19,74,42.75,71.92,42.41Z"/><path class="cls-4" d="M194.28,158.44c0,.34,0,.65,0,1a45.9,45.9,0,0,1-.32,5.14c3,.87,6,1.87,9.12,3l0-5.23-.76-.38C199.68,160.67,197,159.5,194.28,158.44Z"/></g></g></g></svg>