<svg xmlns="http://www.w3.org/2000/svg" viewBox="0 0 28.23 34.84"><defs><style>.cls-1{fill:none;}.cls-2{fill:#fff;}.cls-3{fill:#616e7d;}</style></defs><title>Candado-cerrado</title><g id="Capa_2" data-name="Capa 2"><g id="Capa_1-2" data-name="Capa 1"><path class="cls-1" d="M10.57,5.56a4.72,4.72,0,0,0-2.17,4v4.39H19.79V9.51C19.33,5.57,14.85,2.84,10.57,5.56Z"/><path class="cls-2" d="M15.42,27V24.59a2.49,2.49,0,0,0,1.18-2.11,2.53,2.53,0,0,0-4.09-2,1.19,1.19,0,0,0-.37.37,2.55,2.55,0,0,0,.68,3.71V27Z"/><path class="cls-3" d="M3.1,34.84h22a3.09,3.09,0,0,0,3-2.33H.1A3.09,3.09,0,0,0,3.1,34.84Z"/><path class="cls-2" d="M0,31.74a3.25,3.25,0,0,0,.1.77h28a2.8,2.8,0,0,0,.1-.77v-.49H0Z"/><path class="cls-3" d="M24.3,10.18c0-7.33-7.79-12.87-15.52-8.8A9.19,9.19,0,0,0,3.94,9.54v4.4h-2A1.94,1.94,0,0,0,0,15.88V31.25H28.23V15.87a1.93,1.93,0,0,0-1.93-1.93H24.23V10.18ZM15.42,24.59V27h-2.6V24.59a2.55,2.55,0,0,1-.68-3.71,1.19,1.19,0,0,1,.37-.37,2.53,2.53,0,0,1,4.09,2A2.49,2.49,0,0,1,15.42,24.59Zm4.37-10.65H8.4V9.55a4.72,4.72,0,0,1,2.17-4c4.28-2.72,8.76,0,9.22,4Z"/></g></g></svg>