<svg xmlns="http://www.w3.org/2000/svg" viewBox="0 0 232.6 232.6"><defs><style>.cls-1{fill:#252525;opacity:0;}.cls-2{fill:#3673d4;}.cls-3{fill:#fff;}</style></defs><title>icono1</title><g id="Capa_2" data-name="Capa 2"><g id="Capa_1-2" data-name="Capa 1"><rect class="cls-1" x="0.5" y="0.5" width="231.61" height="231.61" transform="translate(0.5 -0.5) rotate(0.25)"/><path class="cls-2" d="M40.1,30.94l-.28,66.52L53.17,82.14,65.23,97.57l.28-66.46a74.66,74.66,0,0,1,12.93,3.27l0-4.16a82.51,82.51,0,0,0-25.67-4.15,97.49,97.49,0,0,0-23.25,2.78l0,4.17A95.86,95.86,0,0,1,40.1,30.94Z"/><path class="cls-2" d="M221,48.25l.05-13.15-1.12-.55a94.2,94.2,0,0,0-37.63-7.92c-25.18-.11-47.56,10.51-64.89,30.67C100.26,37,78,26.18,52.79,26.07A94.45,94.45,0,0,0,15.1,33.66L14,34.2l-.06,13.16-5.2,0V49.8L8.11,186.94v2.47s55.5-30.25,107,.83c0,0,.57.68.85.51.29.17.86-.5.86-.5a97.09,97.09,0,0,1,19.54-8.82c6.17,16.23,20.36,25,20.36,25l39.62.17A89.52,89.52,0,0,0,206.12,183a110.91,110.91,0,0,1,17.75,7.33v-2.47l.59-137.14V48.26ZM119.4,61.1c16.91-20.32,38.06-30.57,62.89-30.47a93.78,93.78,0,0,1,34.75,7l-.55,127.93c-2.81-1.32-5.64-2.47-8.48-3.53-1.14-17-7.89-18.42-10.42-18.33-.11,2.31-.22,4.52-.37,6.43-.16,2.43-.42,4.45-.55,5.87s-.28,2.22-.28,2.22-.11-.81-.25-2.22-.35-3.45-.5-5.87c-.3-4.54-.49-10.48-.5-16.52-3-7.93-9.93-6.33-12.52-5.38-.08,7.25-.32,14.32-.66,19.77-.16,3.05-.43,5.59-.55,7.36,0,.22,0,.38,0,.57l-.44,0c0-.17,0-.33,0-.53-.12-1.78-.35-4.32-.49-7.36-.33-6.1-.52-14.23-.49-22.35,0-2,0-4.08.07-6.08-3.09-6.65-9.76-5.82-12.59-5.1,0,2.17,0,4.37,0,6.58,0,4.63-.08,9.26-.22,13.6s-.35,8.39-.48,11.87-.43,6.36-.55,8.39c0,.34,0,.61-.08.9l-.37,0c0-.3-.05-.59-.08-.93-.1-2-.36-4.93-.47-8.4s-.32-7.53-.38-11.87-.1-9-.11-13.6.09-9.27.23-13.61.35-8.39.49-11.86c0-1.24.12-2.37.19-3.44-.05-.27-.12-.51-.17-.77a81.79,81.79,0,0,1,36-.61l.81-4a85.66,85.66,0,0,0-38,.72c-1.32-2.87-3.44-4.66-6.9-4.67-3.29,0-5.39,3.82-6.71,9.31-14.9,6.5-23.37,15.11-23.53,15.27l3,2.85c.13-.14,7.16-7.25,19.63-13.19-1.7,11.53-1.14,26.69-1,31.86.25,7.31.34,24.27.37,29.67l-.29.08-4.4-23.94c-2.26-.17-10.62,7.23-10.82,29.11a94.19,94.19,0,0,0-14.61,7.84l.46-105.22V61.1ZM18,36.78A90.06,90.06,0,0,1,40.1,30.94c6.3-.87,19.14-.88,25.41.17,19.54,3.26,36.1,13.1,49.88,30v5.3l-.45,105.22a99.77,99.77,0,0,0-54.36-16.56,102,102,0,0,0-43.15,9.66Zm98.91,147.08S81.08,152.4,15.36,176.22l0-6.1.89-.44a98.81,98.81,0,0,1,44.27-10.62c32.66.14,54.87,17.84,55.09,18l1.25,1.42,1.26-1.41a80.45,80.45,0,0,1,15.47-8.9,41.71,41.71,0,0,0,.92,7C123.22,179.32,116.87,183.86,116.87,183.86Zm90.95-10.32a59.28,59.28,0,0,0,.37-6c0-.41,0-.76,0-1.16,3.15,1.24,6.29,2.6,9.41,4.17l.89.45,0,6.09C214.83,175.72,211.29,174.55,207.82,173.54Z"/><path class="cls-2" d="M201.54,52.93l.81-4c-45.8-9.23-74.87,20.33-75.16,20.63l3,2.86C130.43,72.09,158,44.16,201.54,52.93Z"/><path class="cls-2" d="M201.46,71.84l.81-4c-45.81-9.23-74.87,20.33-75.16,20.62l3,2.86C130.35,91,157.92,63.07,201.46,71.84Z"/><path class="cls-3" d="M118.15,177.09l-1.26,1.41-1.25-1.42c-.22-.18-22.43-17.88-55.09-18a98.81,98.81,0,0,0-44.27,10.62l-.89.44,0,6.1c65.72-23.82,101.51,7.64,101.51,7.64s6.35-4.54,17.67-8.7a41.71,41.71,0,0,1-.92-7A80.45,80.45,0,0,0,118.15,177.09Z"/><path class="cls-3" d="M216.49,165.57,217,37.64a93.78,93.78,0,0,0-34.75-7c-24.83-.1-46,10.15-62.89,30.47v5.3l-.46,105.23a94.19,94.19,0,0,1,14.61-7.84c.2-21.88,8.56-29.28,10.82-29.11l4.4,23.94.29-.08c0-5.4-.12-22.36-.37-29.67-.18-5.17-.74-20.33,1-31.86-12.47,5.94-19.5,13-19.63,13.19l-3-2.85c.16-.16,8.63-8.77,23.53-15.27,1.32-5.49,3.42-9.33,6.71-9.31,3.46,0,5.58,1.8,6.9,4.67a85.66,85.66,0,0,1,38-.72l-.81,4a81.93,81.93,0,0,0-36,.62c.05.26.12.5.17.77-.07,1.07-.15,2.2-.19,3.44-.14,3.47-.39,7.52-.49,11.86s-.18,9-.23,13.61,0,9.26.11,13.6.28,8.4.38,11.87.37,6.37.47,8.4c0,.34,0,.63.08.93l.37,0c0-.29.05-.56.08-.9.12-2,.41-4.92.55-8.39s.39-7.53.48-11.87.18-9,.22-13.6c0-2.21,0-4.41,0-6.58,2.83-.72,9.5-1.55,12.59,5.1,0,2-.06,4-.07,6.08,0,8.12.16,16.25.49,22.35.14,3,.37,5.58.49,7.36,0,.2,0,.36,0,.53l.44,0c0-.19,0-.35,0-.57.12-1.77.39-4.31.55-7.36.34-5.45.58-12.52.66-19.77,2.59-1,9.48-2.55,12.52,5.38,0,6,.2,12,.5,16.52.15,2.42.38,4.45.5,5.86s.25,2.23.25,2.23.13-.81.28-2.22.39-3.44.55-5.87c.15-1.91.26-4.12.37-6.43,2.53-.09,9.28,1.36,10.42,18.33C210.85,163.1,213.68,164.25,216.49,165.57Zm-15-93.73C157.92,63.07,130.35,91,130.08,91.29l-3-2.86c.29-.29,29.36-29.85,75.16-20.62Zm.08-18.91C158,44.16,130.43,72.09,130.16,72.38l-3-2.86c.29-.3,29.36-29.86,75.16-20.63Z"/><path class="cls-3" d="M65.51,31.11l-.28,66.46L53.17,82.14,39.82,97.46l.28-66.52c-1.87.26-3.64.57-5.34.9l-.57.12c-1.64.33-3.22.69-4.67,1.06v0A84.73,84.73,0,0,0,18,36.78l-.55,127.93a102,102,0,0,1,43.15-9.66,99.77,99.77,0,0,1,54.36,16.56l.45-105.22v-5.3c-11.82-14.47-25.7-23.74-41.74-28.15-.36-.1-.71-.23-1.07-.33C70.26,32,67.91,31.51,65.51,31.11Z"/><path class="cls-3" d="M208.17,166.38c0,.4,0,.75,0,1.16a59.28,59.28,0,0,1-.37,6c3.47,1,7,2.18,10.62,3.55l0-6.09-.89-.45C214.46,169,211.32,167.62,208.17,166.38Z"/></g></g></svg>