<svg xmlns="http://www.w3.org/2000/svg" viewBox="0 0 231.61 231.61"><defs><style>.cls-1{fill:#252525;opacity:0;}.cls-2{fill:#3673d4;}</style></defs><title>icono4</title><g id="Capa_2" data-name="Capa 2"><g id="Capa_1-2" data-name="Capa 1"><rect class="cls-1" width="231.61" height="231.61"/><path class="cls-2" d="M222.89,72.13l-.39-.59-13.44-14a2.22,2.22,0,0,1,1.18-3.35,14.13,14.13,0,0,0,5.64-3.3,13.73,13.73,0,1,0-19-19.84,14.16,14.16,0,0,0-3.54,5.49,2.22,2.22,0,0,1-3.4,1l-13.39-14-.58-.42a2.21,2.21,0,0,0-3.07.05L157.41,38a2.1,2.1,0,0,1-2.21-1.5c-1.32-4.56-5.11-8.5-11.55-9.75a5.54,5.54,0,0,0-2,0c-13.18,2.31-16.57,16-9.49,23.45a13,13,0,0,0,5.24,3.34A2.07,2.07,0,0,1,138.69,56L123.08,71A2.22,2.22,0,0,0,123,74.1l14.12,14.72.25.19.08.09A2.22,2.22,0,0,0,141.15,88c1.3-5,5.41-9.42,12.27-10.77a13.74,13.74,0,0,1,3.84.26,13.75,13.75,0,0,1,10.48,11,13.71,13.71,0,0,1,.09,3.84c-1.67,6.79-6.29,10.7-11.32,11.76a2.23,2.23,0,0,0-1.29,3.68l.08.09.19.27,14.06,14.76a2.23,2.23,0,0,0,3.15,0l15.67-14.94a2.09,2.09,0,0,1,2.35,1.44,12.92,12.92,0,0,0,3.11,5.39c7.1,7.41,20.94,4.63,23.85-8.43a5.56,5.56,0,0,0,.07-2c-1-6.48-4.72-10.46-9.21-12a2.08,2.08,0,0,1-1.4-2.27L222.71,75.2A2.23,2.23,0,0,0,222.89,72.13Z"/><path class="cls-2" d="M151.56,209h.11l.33.05,20.38.09a2.23,2.23,0,0,0,2.21-2.25l.09-21.65a2.09,2.09,0,0,1,2.66-.7,12.94,12.94,0,0,0,6,1.49c10.27,0,17.85-11.88,10.45-23a5.59,5.59,0,0,0-1.41-1.46c-5.34-3.8-10.8-3.84-15-1.65a2.09,2.09,0,0,1-2.6-.57l.08-21.51a2.21,2.21,0,0,0-2.08-2.25l-.71-.14h-19.4a2.22,2.22,0,0,1-1.6-3.17,14.2,14.2,0,0,0,1.53-6.35,13.73,13.73,0,1,0-27.45-.07,14.06,14.06,0,0,0,1.51,6.36,2.24,2.24,0,0,1-1.63,3.17l-19.4-.09-.7.13a2.18,2.18,0,0,0-1.88,1.29,3.27,3.27,0,0,1,.19,1.08l0,22.21L102,159.7a2,2,0,0,1-1.78,0l-.38-.16a14,14,0,0,0-2,.15l-.18,0-.18,0a11.19,11.19,0,0,0-2.11-.27A12.43,12.43,0,0,0,83.2,170.44a12.66,12.66,0,0,0-.12,1.64,15,15,0,0,0,1.9,7.06c.28.52.55,1.05.9,1.58A4.34,4.34,0,0,0,87,181.88a14.19,14.19,0,0,0,8.27,2.85,15.32,15.32,0,0,0,2-.17l.18,0,.18,0c.57.09,1,.18,1.42.23a10.29,10.29,0,0,0,1-.46,2,2,0,0,1,2.06.15l1-.2,0,22.55a3.41,3.41,0,0,1-.12.84,2.17,2.17,0,0,0,2,1.28h20.4l.31,0h.12a2.23,2.23,0,0,0,1.77-3.48c-2.69-4.37-3-10.41.74-16.3a13.7,13.7,0,0,1,2.84-2.59,13.76,13.76,0,0,1,15.17,0,13.7,13.7,0,0,1,2.83,2.6c3.75,5.91,3.36,11.95.65,16.31A2.23,2.23,0,0,0,151.56,209Z"/><path class="cls-2" d="M79.39,132.56l0,.12,0,0-.12.47a1.18,1.18,0,0,0,.89,1.09l19.25,0a2.94,2.94,0,0,1,.75.14h0a3.26,3.26,0,0,1,1.81.65l.12-.61.09-21.64a2.08,2.08,0,0,1,2.66-.7,12.94,12.94,0,0,0,6,1.49c10.28,0,17.86-11.88,10.45-23a5.4,5.4,0,0,0-1.41-1.45c-5.33-3.81-10.8-3.84-15-1.66a2.08,2.08,0,0,1-2.6-.57l.09-21.5a2.24,2.24,0,0,0-2.09-2.26L99.51,63H80.11a2.23,2.23,0,0,1-1.6-3.18A14,14,0,0,0,80,53.42a13.73,13.73,0,1,0-27.45-.07,14.13,14.13,0,0,0,1.51,6.36,2.23,2.23,0,0,1-1.62,3.16l-19.41-.09-.7.13a2.22,2.22,0,0,0-2.1,2.25l0,21.51a2.09,2.09,0,0,1-2.6.55C23.45,85,18,85,12.62,88.8a5.6,5.6,0,0,0-1.42,1.45c-7.46,11.11.06,23,10.33,23.09a12.81,12.81,0,0,0,6-1.47,2.09,2.09,0,0,1,2.66.72l0,21.65a2.39,2.39,0,0,0,.15.76,3.28,3.28,0,0,1,1.79-.63h0a3,3,0,0,1,.75-.14l19.26,0a1.16,1.16,0,0,0,.88-1.09l-.11-.47,0-.05,0,0,0-.07a15.2,15.2,0,0,1-1.57-6.6h0v-.07h0v0a15,15,0,0,1,.66-4.21A14.53,14.53,0,0,1,65.8,110.94h.65A14.53,14.53,0,0,1,80.3,121.63a15,15,0,0,1,.65,4.21v0A15.1,15.1,0,0,1,79.39,132.56Z"/><path class="cls-2" d="M86.07,160.62A14.28,14.28,0,0,1,95.55,157v0a13.69,13.69,0,0,1,2.37.27,20.34,20.34,0,0,1,2.2-.16c.35,0,.72,0,1.08.05l0-19.58a1.11,1.11,0,0,0-1-1.13l-.07,0H100l-.16-.06-.33-.06-19.49,0-.1,0a3.32,3.32,0,0,1-2.71-3l-.06-.29a3.22,3.22,0,0,1,.33-1.39h0l0-.11,0,0a13,13,0,0,0,1.36-5.78v0a13.38,13.38,0,0,0-.56-3.6A12.33,12.33,0,0,0,66.64,113H66a11.8,11.8,0,0,0-7,2.31A12.83,12.83,0,0,0,54.28,122a16.09,16.09,0,0,0-.43,2,9.92,9.92,0,0,0-.14,1.55h0v0a12.85,12.85,0,0,0,1.37,5.78l0,.05,0,.05,0,.06h0a3.33,3.33,0,0,1,.31,1.37l-.05.27a3.32,3.32,0,0,1-2.72,3l-.09,0-19.49,0-.16,0-.17,0-.16.06h-.17a1.13,1.13,0,0,0-1,1.14l0,21.91-.25.31a3.28,3.28,0,0,1-2.51,1.2,3.11,3.11,0,0,1-1.47-.37,11.91,11.91,0,0,0-5.51-1.35,14.36,14.36,0,0,0-8.36,2.9,4.45,4.45,0,0,0-1.13,1.16,15.5,15.5,0,0,0-2.8,8.64,12.51,12.51,0,0,0,12.26,12.7h0a11.94,11.94,0,0,0,5.51-1.35,3.06,3.06,0,0,1,1.43-.36,3.29,3.29,0,0,1,2.65,1.4l.21.29,0,22a1.12,1.12,0,0,0,1.08,1.14l20.31,0,.32-.05h.21a1,1,0,0,0,.72-.31,1.23,1.23,0,0,0,.29-.79l-.2-.68a15.11,15.11,0,0,1-2.25-8,17.71,17.71,0,0,1,3-9.53l0-.06,0-.05a14.82,14.82,0,0,1,3.07-2.8l0,0,0,0A16.37,16.37,0,0,1,66.31,183h0a16.31,16.31,0,0,1,8.14,2.45h0l0,0a14.58,14.58,0,0,1,3.07,2.8l0,.06,0,.05a17.72,17.72,0,0,1,2.95,9.54,15.08,15.08,0,0,1-2.25,8l-.2.67a1.19,1.19,0,0,0,.3.79,1,1,0,0,0,.72.31h.27l.24,0,20.32,0a1.12,1.12,0,0,0,1.08-1.14l0-19.86a10.94,10.94,0,0,1-1.43.1h0a11.18,11.18,0,0,1-2.06-.29,14.12,14.12,0,0,1-2.17.19,16.44,16.44,0,0,1-9.22-3l-.35-.21a6.87,6.87,0,0,1-1.69-1.75,19.33,19.33,0,0,1-2.48-5.27,18.65,18.65,0,0,1-.69-4.6A15.05,15.05,0,0,1,86.07,160.62Z"/></g></g></svg>