<svg xmlns="http://www.w3.org/2000/svg" viewBox="0 0 231.61 231.61"><defs><style>.cls-1{fill:#252525;opacity:0;}.cls-2{fill:#3673d4;}</style></defs><title>icono2</title><g id="Capa_2" data-name="Capa 2"><g id="Capa_1-2" data-name="Capa 1"><rect class="cls-1" width="231.61" height="231.61"/><path class="cls-2" d="M12.49,68.76l6.26,2.15v53a4.87,4.87,0,0,0-1.26,8.21c-2.33,1.56-3.94,4.76-3.94,8.5v16.94H27.73V140.62c0-3.74-1.62-6.94-3.95-8.5a4.86,4.86,0,0,0-1.25-8.21V72.21l7.4,2.56v-6Z"/><polygon class="cls-2" points="223.88 67.12 115.8 34.03 7.72 67.12 18.75 70.92 22.53 72.21 51.52 82.2 51.52 82.2 115.8 104.33 180.09 82.2 180.09 82.2 223.88 67.12"/><path class="cls-2" d="M115.8,111.25l-2.13-.73L51.52,89.12v84.19c0,13.4,28.78,24.27,64.28,24.27s64.29-10.87,64.29-24.27V89.12l-62.16,21.4Z"/></g></g></svg>